<?xml version="1.0" encoding="UTF-8"?>
<!DOCTYPE svg PUBLIC "-//W3C//DTD SVG 1.1//EN" "http://www.w3.org/Graphics/SVG/1.1/DTD/svg11.dtd">
<!-- Creator: CorelDRAW X6 -->
<svg xmlns="http://www.w3.org/2000/svg" xml:space="preserve" width="8.5in" height="11in" version="1.1" style="shape-rendering:geometricPrecision; text-rendering:geometricPrecision; image-rendering:optimizeQuality; fill-rule:evenodd; clip-rule:evenodd"
viewBox="0 0 8500 11000"
 xmlns:xlink="http://www.w3.org/1999/xlink">
 <defs>
  <style type="text/css">
   <![CDATA[
    .str0 {stroke:black;stroke-width:41.6654}
    .fil0 {fill:none}
    .fil1 {fill:black}
   ]]>
  </style>
 </defs>
 <g id="Layer_x0020_1">
  <metadata id="CorelCorpID_0Corel-Layer"/>
  <rect class="fil0 str0" x="10509" y="11400" width="729" height="729" rx="174" ry="174"/>
  <path class="fil1" d="M10794 11975l31 15c239,-225 252,-426 231,-549 -110,58 -262,192 -293,519l31 15z"/>
  <polygon class="fil1" points="10848,11968 10926,11881 10951,11957 10908,12014 "/>
  <path class="fil1" d="M10760 11830l-43 8 -28 83 53 8c0,-24 5,-64 18,-99z"/>
  <path class="fil1" d="M10904 12079c86,-70 120,-143 133,-196 7,-29 -21,-39 -26,-19 -12,53 -93,82 -124,189l17 25z"/>
  <path class="fil1" d="M10657 11974c-3,-111 30,-184 61,-229 17,-25 43,-9 31,7 -32,44 -1,124 -62,218l-30 4z"/>
 </g>
</svg>
